<mxfile host="Electron" agent="Mozilla/5.0 (Windows NT 10.0; Win64; x64) AppleWebKit/537.36 (KHTML, like Gecko) draw.io/28.0.6 Chrome/138.0.7204.100 Electron/37.2.3 Safari/537.36" version="28.0.6">
  <diagram name="Company ER Diagram (Chen Notation)" id="0">
    <mxGraphModel dx="2135" dy="764" grid="1" gridSize="10" guides="1" tooltips="1" connect="1" arrows="1" fold="1" page="1" pageScale="1" pageWidth="850" pageHeight="1100" math="0" shadow="0">
      <root>
        <mxCell id="0" />
        <mxCell id="1" parent="0" />
        <mxCell id="2" value="&lt;b&gt;Employee&lt;/b&gt;" style="shape=rectangle;whiteSpace=wrap;html=1;fillColor=#fa6800;strokeColor=#C73500;fontColor=#000000;" parent="1" vertex="1">
          <mxGeometry x="100" y="100" width="120" height="50" as="geometry" />
        </mxCell>
        <mxCell id="3" value="&lt;b&gt;Department&lt;/b&gt;" style="shape=rectangle;whiteSpace=wrap;html=1;fillColor=#fa6800;strokeColor=#C73500;fontColor=#000000;" parent="1" vertex="1">
          <mxGeometry x="500" y="100" width="120" height="50" as="geometry" />
        </mxCell>
        <mxCell id="4" value="&lt;b&gt;Project&lt;/b&gt;" style="shape=rectangle;whiteSpace=wrap;html=1;fillColor=#fa6800;strokeColor=#C73500;fontColor=#000000;" parent="1" vertex="1">
          <mxGeometry x="380" y="330" width="120" height="50" as="geometry" />
        </mxCell>
        <mxCell id="5" value="&lt;b&gt;Manager&lt;/b&gt;" style="shape=rectangle;whiteSpace=wrap;html=1;fillColor=#fa6800;strokeColor=#C73500;fontColor=#000000;" parent="1" vertex="1">
          <mxGeometry x="800" y="100" width="120" height="50" as="geometry" />
        </mxCell>
        <mxCell id="6" value="&lt;u&gt;EmpID&lt;/u&gt;" style="shape=ellipse;whiteSpace=wrap;html=1;fillColor=#76608a;strokeColor=#432D57;fontColor=#ffffff;" parent="1" vertex="1">
          <mxGeometry x="160" y="30" width="100" height="40" as="geometry" />
        </mxCell>
        <mxCell id="7" value="Name" style="shape=ellipse;whiteSpace=wrap;html=1;fillColor=#76608a;strokeColor=#432D57;fontColor=#ffffff;" parent="1" vertex="1">
          <mxGeometry x="60" y="30" width="100" height="40" as="geometry" />
        </mxCell>
        <mxCell id="8" value="JobTitle" style="shape=ellipse;whiteSpace=wrap;html=1;fillColor=#76608a;strokeColor=#432D57;fontColor=#ffffff;" parent="1" vertex="1">
          <mxGeometry x="10" y="190" width="100" height="40" as="geometry" />
        </mxCell>
        <mxCell id="9" value="Salary" style="shape=ellipse;whiteSpace=wrap;html=1;fillColor=#76608a;strokeColor=#432D57;fontColor=#ffffff;" parent="1" vertex="1">
          <mxGeometry x="180" y="220" width="100" height="40" as="geometry" />
        </mxCell>
        <mxCell id="10" value="DeptID (FK)" style="shape=ellipse;whiteSpace=wrap;html=1;fillColor=#76608a;strokeColor=#432D57;fontColor=#ffffff;" parent="1" vertex="1">
          <mxGeometry x="-10" y="105" width="100" height="40" as="geometry" />
        </mxCell>
        <mxCell id="11" value="ProjectID (FK)" style="shape=ellipse;whiteSpace=wrap;html=1;fillColor=#76608a;strokeColor=#432D57;fontColor=#ffffff;" parent="1" vertex="1">
          <mxGeometry x="80" y="240" width="100" height="40" as="geometry" />
        </mxCell>
        <mxCell id="12" value="&lt;u&gt;DeptID&lt;/u&gt;" style="shape=ellipse;whiteSpace=wrap;html=1;fillColor=#6a00ff;strokeColor=#3700CC;fontColor=#ffffff;" parent="1" vertex="1">
          <mxGeometry x="500" y="40" width="100" height="40" as="geometry" />
        </mxCell>
        <mxCell id="13" value="DeptName" style="shape=ellipse;whiteSpace=wrap;html=1;fillColor=#6a00ff;strokeColor=#3700CC;fontColor=#ffffff;" parent="1" vertex="1">
          <mxGeometry x="580" y="170" width="100" height="40" as="geometry" />
        </mxCell>
        <mxCell id="14" value="Location" style="shape=ellipse;whiteSpace=wrap;html=1;fillColor=#6a00ff;strokeColor=#3700CC;fontColor=#ffffff;" parent="1" vertex="1">
          <mxGeometry x="425" y="160" width="100" height="40" as="geometry" />
        </mxCell>
        <mxCell id="15" value="&lt;u&gt;ProjID&lt;/u&gt;" style="shape=ellipse;whiteSpace=wrap;html=1;fillColor=#008a00;strokeColor=#005700;fontColor=#ffffff;" parent="1" vertex="1">
          <mxGeometry x="440" y="430" width="100" height="40" as="geometry" />
        </mxCell>
        <mxCell id="16" value="ProjName" style="shape=ellipse;whiteSpace=wrap;html=1;fillColor=#008a00;strokeColor=#005700;fontColor=#ffffff;" parent="1" vertex="1">
          <mxGeometry x="230" y="335" width="100" height="40" as="geometry" />
        </mxCell>
        <mxCell id="17" value="Budget" style="shape=ellipse;whiteSpace=wrap;html=1;fillColor=#008a00;strokeColor=#005700;fontColor=#ffffff;" parent="1" vertex="1">
          <mxGeometry x="540" y="335" width="100" height="40" as="geometry" />
        </mxCell>
        <mxCell id="18" value="DeptID (FK)" style="shape=ellipse;whiteSpace=wrap;html=1;fillColor=#008a00;strokeColor=#005700;fontColor=#ffffff;" parent="1" vertex="1">
          <mxGeometry x="315" y="420" width="100" height="40" as="geometry" />
        </mxCell>
        <mxCell id="19" value="&lt;u&gt;MgrID&lt;/u&gt;" style="shape=ellipse;whiteSpace=wrap;html=1;fillColor=#0050ef;strokeColor=#001DBC;fontColor=#ffffff;" parent="1" vertex="1">
          <mxGeometry x="810" y="40" width="100" height="40" as="geometry" />
        </mxCell>
        <mxCell id="20" value="Name" style="shape=ellipse;whiteSpace=wrap;html=1;fillColor=#0050ef;strokeColor=#001DBC;fontColor=#ffffff;" parent="1" vertex="1">
          <mxGeometry x="940" y="105" width="100" height="40" as="geometry" />
        </mxCell>
        <mxCell id="21" value="EmpID (FK)" style="shape=ellipse;whiteSpace=wrap;html=1;fillColor=#0050ef;strokeColor=#001DBC;fontColor=#ffffff;" parent="1" vertex="1">
          <mxGeometry x="880" y="190" width="100" height="40" as="geometry" />
        </mxCell>
        <mxCell id="22" value="DeptID (FK)" style="shape=ellipse;whiteSpace=wrap;html=1;fillColor=#0050ef;strokeColor=#001DBC;fontColor=#ffffff;" parent="1" vertex="1">
          <mxGeometry x="770" y="190" width="100" height="40" as="geometry" />
        </mxCell>
        <mxCell id="23" value="works in" style="shape=rhombus;whiteSpace=wrap;html=1;fillColor=#e3c800;strokeColor=#B09500;fontColor=#000000;" parent="1" vertex="1">
          <mxGeometry x="290" y="95" width="120" height="60" as="geometry" />
        </mxCell>
        <mxCell id="24" value="controls" style="shape=rhombus;whiteSpace=wrap;html=1;fillColor=#e3c800;strokeColor=#B09500;fontColor=#000000;" parent="1" vertex="1">
          <mxGeometry x="460" y="220" width="120" height="60" as="geometry" />
        </mxCell>
        <mxCell id="25" value="assigned to" style="shape=rhombus;whiteSpace=wrap;html=1;fillColor=#e3c800;strokeColor=#B09500;fontColor=#000000;" parent="1" vertex="1">
          <mxGeometry x="315" y="220" width="120" height="60" as="geometry" />
        </mxCell>
        <mxCell id="26" value="manages" style="shape=rhombus;whiteSpace=wrap;html=1;fillColor=#e3c800;strokeColor=#B09500;fontColor=#000000;" parent="1" vertex="1">
          <mxGeometry x="650" y="95" width="120" height="60" as="geometry" />
        </mxCell>
        <mxCell id="27" style="endArrow=none;html=1;strokeColor=#C73500;fillColor=#fa6800;" parent="1" source="6" target="2" edge="1">
          <mxGeometry relative="1" as="geometry" />
        </mxCell>
        <mxCell id="28" style="endArrow=none;html=1;strokeColor=#C73500;fillColor=#fa6800;" parent="1" source="7" target="2" edge="1">
          <mxGeometry relative="1" as="geometry" />
        </mxCell>
        <mxCell id="29" style="endArrow=none;html=1;strokeColor=#C73500;fillColor=#fa6800;" parent="1" source="8" target="2" edge="1">
          <mxGeometry relative="1" as="geometry" />
        </mxCell>
        <mxCell id="30" style="endArrow=none;html=1;strokeColor=#C73500;fillColor=#fa6800;" parent="1" source="9" target="2" edge="1">
          <mxGeometry relative="1" as="geometry" />
        </mxCell>
        <mxCell id="31" style="endArrow=none;html=1;strokeColor=#C73500;fillColor=#fa6800;" parent="1" source="10" target="2" edge="1">
          <mxGeometry relative="1" as="geometry" />
        </mxCell>
        <mxCell id="32" style="endArrow=none;html=1;strokeColor=#C73500;fillColor=#fa6800;" parent="1" source="11" target="2" edge="1">
          <mxGeometry relative="1" as="geometry" />
        </mxCell>
        <mxCell id="33" style="endArrow=none;html=1;strokeColor=#C73500;fillColor=#fa6800;" parent="1" source="12" target="3" edge="1">
          <mxGeometry relative="1" as="geometry" />
        </mxCell>
        <mxCell id="34" style="endArrow=none;html=1;strokeColor=#C73500;fillColor=#fa6800;" parent="1" source="13" target="3" edge="1">
          <mxGeometry relative="1" as="geometry" />
        </mxCell>
        <mxCell id="35" style="endArrow=none;html=1;strokeColor=#C73500;fillColor=#fa6800;" parent="1" source="14" target="3" edge="1">
          <mxGeometry relative="1" as="geometry" />
        </mxCell>
        <mxCell id="36" style="endArrow=none;html=1;strokeColor=#C73500;fillColor=#fa6800;" parent="1" source="15" target="4" edge="1">
          <mxGeometry relative="1" as="geometry" />
        </mxCell>
        <mxCell id="37" style="endArrow=none;html=1;strokeColor=#C73500;fillColor=#fa6800;" parent="1" source="16" target="4" edge="1">
          <mxGeometry relative="1" as="geometry" />
        </mxCell>
        <mxCell id="38" style="endArrow=none;html=1;strokeColor=#C73500;fillColor=#fa6800;" parent="1" source="17" target="4" edge="1">
          <mxGeometry relative="1" as="geometry" />
        </mxCell>
        <mxCell id="39" style="endArrow=none;html=1;strokeColor=#C73500;fillColor=#fa6800;" parent="1" source="18" target="4" edge="1">
          <mxGeometry relative="1" as="geometry" />
        </mxCell>
        <mxCell id="40" style="endArrow=none;html=1;strokeColor=#C73500;fillColor=#fa6800;" parent="1" source="19" target="5" edge="1">
          <mxGeometry relative="1" as="geometry" />
        </mxCell>
        <mxCell id="41" style="endArrow=none;html=1;strokeColor=#C73500;fillColor=#fa6800;" parent="1" source="20" target="5" edge="1">
          <mxGeometry relative="1" as="geometry" />
        </mxCell>
        <mxCell id="42" style="endArrow=none;html=1;strokeColor=#C73500;fillColor=#fa6800;" parent="1" source="21" target="5" edge="1">
          <mxGeometry relative="1" as="geometry" />
        </mxCell>
        <mxCell id="43" style="endArrow=none;html=1;strokeColor=#C73500;fillColor=#fa6800;" parent="1" source="22" target="5" edge="1">
          <mxGeometry relative="1" as="geometry" />
        </mxCell>
        <mxCell id="44" style="endArrow=none;html=1;strokeColor=#C73500;fillColor=#fa6800;" parent="1" source="2" target="23" edge="1">
          <mxGeometry relative="1" as="geometry" />
        </mxCell>
        <mxCell id="45" style="endArrow=none;html=1;strokeColor=#C73500;fillColor=#fa6800;" parent="1" source="3" target="23" edge="1">
          <mxGeometry relative="1" as="geometry" />
        </mxCell>
        <mxCell id="46" style="endArrow=none;html=1;strokeColor=#C73500;fillColor=#fa6800;entryX=0.5;entryY=0;entryDx=0;entryDy=0;" parent="1" source="3" target="24" edge="1">
          <mxGeometry relative="1" as="geometry" />
        </mxCell>
        <mxCell id="47" style="endArrow=none;html=1;strokeColor=#C73500;fillColor=#fa6800;entryX=0.5;entryY=1;entryDx=0;entryDy=0;" parent="1" source="4" target="24" edge="1">
          <mxGeometry relative="1" as="geometry" />
        </mxCell>
        <mxCell id="48" style="endArrow=none;html=1;strokeColor=#C73500;fillColor=#fa6800;entryX=0.5;entryY=0;entryDx=0;entryDy=0;" parent="1" source="2" target="25" edge="1">
          <mxGeometry relative="1" as="geometry" />
        </mxCell>
        <mxCell id="49" style="endArrow=none;html=1;strokeColor=#C73500;fillColor=#fa6800;entryX=0.5;entryY=1;entryDx=0;entryDy=0;" parent="1" source="4" target="25" edge="1">
          <mxGeometry relative="1" as="geometry" />
        </mxCell>
        <mxCell id="50" style="endArrow=none;html=1;strokeColor=#C73500;fillColor=#fa6800;entryX=1;entryY=0.5;entryDx=0;entryDy=0;" parent="1" source="5" target="26" edge="1">
          <mxGeometry relative="1" as="geometry" />
        </mxCell>
        <mxCell id="51" style="endArrow=none;html=1;strokeColor=#C73500;fillColor=#fa6800;entryX=0;entryY=0.5;entryDx=0;entryDy=0;" parent="1" source="3" target="26" edge="1">
          <mxGeometry relative="1" as="geometry" />
        </mxCell>
      </root>
    </mxGraphModel>
  </diagram>
</mxfile>
